<svg xmlns="http://www.w3.org/2000/svg" style="display: none">
  <symbol id="logo" viewBox="0 0 58 39">
    <path
        d="M57.4805 1.52302V0H44.6432V1.52302L48.3183 2.57649V36.7662H31.4838V2.57649L35.1589 1.52302V0H22.3216V1.52302L25.9967 2.57649V36.7662H9.15619V2.57649L12.8373 1.52302V0H0V1.52302L3.67512 2.57649V36.2606L0 37.308V38.834H57.4805V37.308L53.8024 36.2606V2.57649L57.4805 1.52302Z"
        fill="#453526" /> 
    </symbol>

  <symbol id="search"  viewBox="0 0 11 12">
  <circle cx="5" cy="5" r="4" stroke="#453526" stroke-width="1.5" stroke-linecap="round" stroke-linejoin="round"/>
<path d="M7.75 7.97849L10.25 10.4785" stroke="#453526" stroke-width="1.5" stroke-linecap="round" stroke-linejoin="round"/>
 </symbol>

  <symbol id="user" viewBox="0 0 24 24">
    <circle cx="2.93" cy="2.93" r="2.93" transform="matrix(-1 0 0 1 10.24 6.88)" fill="currentColor" />
    <path d="M2.18 17.09C2.18 16.46 2.58 15.9 ..." fill="currentColor" />
  </symbol>

</svg>
