<svg width="287" height="40" viewBox="0 0 287 40" fill="none" xmlns="http://www.w3.org/2000/svg">
<path d="M150.523 33.9219H149.696V39.8818H150.523V33.9219Z" fill="#52483E"/>
<path d="M142.429 34.6374H144.371V39.8818H145.201V34.6374H147.146V33.9219H142.429V34.6374Z" fill="#52483E"/>
<path d="M132.3 36.8429C132.112 36.6987 131.889 36.5868 131.626 36.5161C131.37 36.4425 131.086 36.4071 130.773 36.4071H129.645V34.6492H132.467V33.9248H128.816V39.8848H130.743C131.05 39.8848 131.334 39.8494 131.596 39.7758C131.859 39.7022 132.083 39.5932 132.271 39.449C132.465 39.2958 132.614 39.1133 132.724 38.8924C132.831 38.6745 132.885 38.4213 132.885 38.1356C132.885 37.85 132.834 37.5997 132.73 37.3877C132.632 37.1698 132.485 36.9902 132.3 36.8429ZM131.701 38.8895C131.456 39.0691 131.122 39.1604 130.695 39.1604H129.645V37.1315H130.704C131.113 37.1315 131.444 37.214 131.695 37.3759C131.951 37.5379 132.08 37.7911 132.08 38.1327C132.077 38.4566 131.951 38.7098 131.701 38.8895Z" fill="#52483E"/>
<path d="M137.963 37.5909L136.179 33.9189H135.257L137.518 38.5244C137.387 38.7717 137.253 38.9631 137.119 39.0986C136.981 39.2281 136.823 39.2929 136.641 39.2929C136.495 39.2929 136.37 39.2694 136.265 39.2252C136.164 39.181 136.08 39.1368 136.018 39.0897L135.582 39.7287C135.672 39.7906 135.791 39.8495 135.931 39.9054C136.08 39.9672 136.283 39.9996 136.546 39.9996C136.778 39.9996 136.984 39.9643 137.16 39.8907C137.342 39.8229 137.503 39.7287 137.647 39.605C137.79 39.4755 137.915 39.3283 138.031 39.1604C138.145 38.9867 138.252 38.7953 138.357 38.5891L140.6 33.9248H139.678L137.963 37.5909Z" fill="#52483E"/>
<path d="M156.2 36.5986L158.444 33.9219H157.54L155.356 36.4042C155.231 36.3924 155.102 36.3836 154.971 36.3807C154.846 36.3689 154.714 36.363 154.577 36.363V33.9219H153.751V39.8818H154.577V37.0874C155.037 37.0756 155.439 37.1227 155.78 37.2317C156.126 37.3318 156.421 37.4996 156.666 37.7293C156.91 37.9531 157.11 38.2446 157.262 38.6039C157.42 38.9631 157.543 39.3901 157.629 39.8848H158.542C158.393 38.9984 158.133 38.2858 157.758 37.747C157.385 37.2052 156.865 36.8223 156.2 36.5986Z" fill="#52483E"/>
<path d="M20.3287 4.91457L22.0053 5.38865V20.477H14.5559V5.38865L16.2325 4.91457V4.0459H10.1643V4.91457L11.841 5.38865V20.477H4.39152V5.38865L6.0622 4.91457V4.0459H0V4.91457L1.67665 5.38865V20.2768L0 20.745V21.6225H26.3968V20.745L24.7202 20.2768V5.38865L26.3968 4.91457V4.0459H20.3287V4.91457Z" fill="#52483E"/>
<path d="M52.1642 4.7819L51.7256 4.55516V4.57578C50.4308 3.98979 48.9749 3.69238 47.3908 3.69238C45.5918 3.69238 43.8227 4.10758 42.4115 4.86141C40.9527 5.63879 39.7951 6.74892 38.9657 8.1594C38.1394 9.56694 37.7217 11.2012 37.7217 13.021C37.7217 14.832 38.1125 16.3808 38.915 17.753C39.7116 19.1105 40.8333 20.1647 42.2474 20.8891C43.6437 21.6046 45.2517 21.9668 47.0298 21.9668C48.8317 21.9668 50.6009 21.5546 52.009 20.8096C53.4739 20.0381 54.6284 18.9309 55.4459 17.5204C56.2633 16.107 56.678 14.4727 56.678 12.6588C56.678 10.8449 56.2872 9.29898 55.4847 7.92678C54.6881 6.5693 53.5723 5.51217 52.1642 4.7819ZM43.7928 19.7171C42.8769 19.0664 42.143 18.1447 41.603 16.9757C41.0183 15.7095 40.72 14.1989 40.72 12.4821C40.72 10.7772 41.0034 9.38437 41.5822 8.22418C42.152 7.0905 42.9157 6.23361 43.8555 5.67707C44.7982 5.12053 45.8573 4.83785 47.0029 4.83785C48.247 4.83785 49.3837 5.17059 50.3831 5.8243C51.3915 6.4839 52.194 7.4468 52.7728 8.68649C53.3665 9.94385 53.6648 11.4515 53.6648 13.1623C53.6648 14.8585 53.3784 16.2572 52.7907 17.4321C52.2179 18.5717 51.4511 19.4315 50.5084 19.988C49.5657 20.5446 48.5066 20.8272 47.3609 20.8272C46.1169 20.8272 44.9802 20.4945 43.9808 19.8408L43.7928 19.7171Z" fill="#52483E"/>
<path d="M83.6566 20.0294H83.5343C83.224 20.0294 82.9257 19.9293 82.6184 19.7261C82.3857 19.573 81.965 19.202 81.2699 18.3098L75.4225 11.0866L81.6249 5.44463L83.5164 4.91165V4.04004H77.4781V4.99116L78.0598 5.06183C78.5073 5.10894 78.7579 5.19728 78.8832 5.25912C78.9787 5.30918 78.9847 5.34746 78.9847 5.40635C78.9847 5.58303 78.7818 6.35747 76.1505 8.85453L73.7697 11.1278H72.3974V5.38868L74.074 4.92049V4.04887H68.0059V4.92049L69.6825 5.38868V20.2768L68.0059 20.745V21.6166H74.074V20.745L72.3974 20.2768V12.2791H73.6683L78.2955 18.8545C79.0592 19.9411 79.6738 20.6949 80.1213 21.0895C80.6285 21.5371 81.1894 21.7638 81.789 21.7638C82.1232 21.7638 82.4603 21.7108 82.7855 21.6019C83.0629 21.5135 83.4836 21.3545 84.1101 21.0983L85.1214 20.6861V19.6349L84.5457 19.8233C84.119 19.9647 83.8356 20.0147 83.6566 20.0294Z" fill="#52483E"/>
<path d="M110.889 4.78779C109.487 4.06046 107.882 3.69238 106.118 3.69238C104.319 3.69238 102.55 4.10758 101.139 4.86141C99.6713 5.64468 98.5138 6.75186 97.6933 8.1594C96.8669 9.56694 96.4493 11.2012 96.4493 13.021C96.4493 14.8349 96.8401 16.3808 97.6426 17.753C98.4392 19.1105 99.5609 20.1647 100.975 20.8891C102.371 21.6046 103.979 21.9668 105.757 21.9668C107.559 21.9668 109.328 21.5546 110.737 20.8096C112.201 20.0381 113.356 18.9309 114.173 17.5204C114.991 16.107 115.406 14.4727 115.406 12.6588C115.406 10.8861 115.033 9.36965 114.269 8.02689C113.478 6.64291 112.312 5.521 110.889 4.78779ZM100.331 16.9698C99.7429 15.7065 99.4476 14.1959 99.4476 12.4792C99.4476 10.7742 99.731 9.38143 100.31 8.22124C100.88 7.08755 101.643 6.23066 102.58 5.67413C103.523 5.11759 104.582 4.8349 105.728 4.8349C106.972 4.8349 108.108 5.16765 109.108 5.82136C110.113 6.47801 110.916 7.44091 111.497 8.68355C112.091 9.94386 112.389 11.4486 112.389 13.1594C112.389 14.8555 112.103 16.2542 111.515 17.4291C110.942 18.5687 110.176 19.4285 109.233 19.9851C108.29 20.5416 107.231 20.8243 106.086 20.8243C104.841 20.8243 103.705 20.4916 102.705 19.8378C101.706 19.1841 100.906 18.2183 100.331 16.9698Z" fill="#52483E"/>
<path d="M139.568 20.2708L137.891 20.739V21.6107H143.959V20.4622L142.283 20.2237V5.39157L143.959 4.92337V4.05176H130.313V4.91748L132.026 5.39746C132.112 6.12184 132.154 6.90217 132.154 7.71489C132.154 9.50818 131.996 11.3044 131.683 13.0476C131.373 14.7732 130.898 16.2161 130.272 17.3291C129.702 18.3421 129.034 18.8545 128.285 18.8545C128.046 18.8545 127.843 18.8309 127.664 18.7779L127.36 18.6896L127.184 18.9487C126.883 19.3904 126.727 19.8586 126.727 20.3386C126.727 20.795 126.859 21.166 127.124 21.4369C127.393 21.7078 127.745 21.8462 128.168 21.8462C128.92 21.8462 129.666 21.3545 130.385 20.3798C131.056 19.4699 131.698 17.8768 132.285 15.6478C132.87 13.4393 133.33 10.4328 133.649 6.71371L133.78 5.1825H139.565V20.2708H139.568Z" fill="#52483E"/>
<path d="M164.509 3.69531H163.921L156.642 20.2147L155.317 20.412L155.275 21.6193H161.367L161.394 20.7212L160.681 20.5799C159.891 20.4238 159.515 20.2089 159.339 20.0528C159.127 19.8702 159.028 19.5345 159.04 19.0604C159.061 18.501 159.315 17.2907 160.38 14.6935H165.956L168.155 20.3178L166.618 20.7448L166.591 21.6193H172.343L172.37 20.7801L171.087 20.2648L164.509 3.69531ZM160.857 13.551L163.304 7.89731L165.517 13.551H160.857Z" fill="#52483E"/>
<path d="M198.615 20.4887V5.39157L200.291 4.92337V4.05176H186.738V4.92337L188.45 5.40335C188.537 6.09239 188.579 6.71371 188.579 7.24669C188.579 9.44928 188.331 11.5989 187.839 13.6366C187.341 15.7037 186.705 17.868 185.947 20.0677L185.855 20.3415L183.698 20.3651L183.686 25.3121H184.644L184.697 24.9322C184.781 24.2314 184.852 23.6425 184.912 23.1595C185.023 22.2909 185.777 21.6372 186.672 21.6372L197.669 21.6637C198.576 21.6637 199.331 22.3321 199.426 23.2184L199.638 25.2944L200.599 25.3356L200.581 20.5005L198.615 20.4887ZM195.897 5.18544V20.4799H187.427C187.973 18.401 188.486 16.2396 188.952 14.0518C189.453 11.6843 189.838 9.08709 190.094 6.32502L190.202 5.18839H195.897V5.18544Z" fill="#52483E"/>
<path d="M223.338 4.91457L225.015 5.38865V11.6283H216.318V5.38865L217.992 4.91457V4.0459H211.927V4.91457L213.6 5.38865V20.2768L211.927 20.745V21.6225H217.992V20.745L216.318 20.2768V12.7679H225.015V20.2768L223.338 20.745V21.6225H229.4V20.745L227.723 20.2768V5.38865L229.4 4.91457V4.0459H223.338V4.91457Z" fill="#52483E"/>
<path d="M245.116 17.55V5.38865L246.793 4.91457V4.0459H240.725V4.91457L242.402 5.38865V22.1113H243.156L253.807 7.87393V20.2768L252.139 20.745V21.6225H258.199V20.745L256.525 20.2768V5.38865L258.199 4.91457V4.0459H254.959L245.116 17.55Z" fill="#52483E"/>
<path d="M275.985 2.6914C276.743 3.25088 277.716 3.53357 278.87 3.53357C280.034 3.53357 281.039 3.24499 281.779 2.69729C282.558 2.12014 282.996 1.3722 283.089 0.474087L283.146 0H280.699V0.397527C280.648 1.03357 280.463 1.56066 280.153 1.96408C279.864 2.33804 279.458 2.51178 278.876 2.51178C278.295 2.51178 277.907 2.34099 277.611 1.9523C277.289 1.53416 277.107 1.01296 277.068 0.421084V0H274.613L274.667 0.477032C274.756 1.36631 275.201 2.11131 275.985 2.6914Z" fill="#52483E"/>
<path d="M287 4.91457V4.0459H283.757L273.918 17.55V5.38865L275.592 4.91457V4.0459H269.526V4.91457L271.2 5.38865V22.1113H271.955L282.608 7.87393V20.2768L280.938 20.745V21.6225H287V20.745L285.323 20.2768V5.38865L287 4.91457Z" fill="#52483E"/>
</svg>
